<?xml version="1.0" standalone="no"?>
<!DOCTYPE svg PUBLIC "-//W3C//DTD SVG 20010904//EN"
 "http://www.w3.org/TR/2001/REC-SVG-20010904/DTD/svg10.dtd">
<svg version="1.0" xmlns="http://www.w3.org/2000/svg"
 width="394.000000pt" height="394.000000pt" viewBox="0 0 394.000000 394.000000"
 preserveAspectRatio="xMidYMid meet">
<metadata>
Created by potrace 1.11, written by Peter Selinger 2001-2013
</metadata>
<g transform="translate(0.000000,394.000000) scale(0.100000,-0.100000)"
fill="#000000" stroke="none">
<path d="M0 1970 l0 -1970 1970 0 1970 0 0 1970 0 1970 -1970 0 -1970 0 0
-1970z m1230 774 c0 -17 -8 -23 -40 -28 -65 -10 -89 -26 -101 -65 -6 -24 -9
-255 -7 -683 3 -606 4 -648 21 -665 15 -15 36 -18 135 -18 110 0 120 2 164 28
104 61 189 221 223 420 4 28 11 37 25 37 19 0 20 -8 20 -178 0 -99 3 -220 6
-270 l7 -90 -527 -1 -527 -1 3 22 c2 18 12 24 48 30 24 4 53 17 65 28 20 20
20 29 20 691 l0 671 -23 18 c-13 11 -43 22 -67 26 -33 5 -45 11 -45 23 0 10 2
20 4 22 2 2 137 4 300 4 295 0 296 0 296 -21z m850 -1 c0 -13 -4 -23 -10 -23
-26 0 -50 -41 -50 -87 0 -59 279 -1002 291 -981 13 24 179 596 179 617 0 29
-88 336 -109 381 -9 19 -30 44 -48 55 -18 11 -32 29 -33 40 0 20 7 20 270 20
l270 0 0 -22 c0 -18 -6 -23 -25 -23 -40 0 -92 -26 -100 -50 -4 -11 -4 -38 0
-58 13 -79 273 -966 279 -952 17 45 188 693 201 761 34 179 5 263 -99 291 -36
9 -46 17 -46 33 0 19 5 20 190 20 185 0 190 -1 190 -21 0 -11 -14 -30 -30 -43
-42 -31 -86 -93 -109 -157 -12 -29 -91 -316 -177 -636 -85 -321 -162 -605
-170 -633 l-14 -50 -67 2 -68 1 -135 471 c-74 259 -137 471 -140 471 -3 0 -66
-212 -141 -472 l-136 -472 -68 1 -69 1 -216 694 c-118 381 -225 709 -236 728
-11 19 -34 44 -52 55 -17 11 -31 29 -32 40 0 19 7 20 255 20 l255 0 0 -22z"/>
</g>
</svg>
